<?xml version="1.0" encoding="UTF-8"?><svg id="a" xmlns="http://www.w3.org/2000/svg" viewBox="0 0 1929 388"><defs><style>.b{fill:#fff;}</style></defs><g><path class="b" d="M821.4,13.15c25.65,0,45.98,16.94,45.98,41.14s-20.33,40.18-45.98,40.18-45.5-16.46-45.5-40.18,19.36-41.14,45.5-41.14Zm-36.78,364.95V129.8h72.12v248.3h-72.12Z"/><path class="b" d="M950.15,290.49c7.26,28.56,32.43,37.27,52.27,37.27,15.97,0,32.43-6.29,32.43-18.88,0-8.23-4.84-14.04-18.39-18.88l-43.56-18.39c-59.05-20.81-61.95-60.02-61.95-71.15,0-49.85,44.05-75.99,97.29-75.99,28.56,0,66.31,7.74,89.54,52.27l-55.66,25.65c-6.29-19.84-24.2-23.72-35.33-23.72-13.55,0-27.59,7.75-27.59,20.33,0,10.65,10.65,16.46,23.23,21.3l37.27,14.52c58.56,16.94,63.89,55.18,63.89,71.63,0,50.82-46.95,76.96-101.64,76.96-36.78,0-87.12-11.62-104.06-63.4l52.27-29.53Z"/><path class="b" d="M1148.12,28.15h72.12V163.68c20.81-29.04,46.95-39.21,76.96-39.21,69.7,0,88.58,55.66,88.58,118.58v135.04h-72.12V244.51c0-34.36-12.58-60.5-45.98-60.5s-47.43,26.62-47.43,60.98v133.11h-72.12V28.15Z"/><path class="b" d="M1684.9,334.54c-35.33,38.72-82.28,48.89-115.68,48.89-91.96,0-142.3-57.6-142.3-128.26s57.11-130.68,136.98-130.68c68.73,0,134.56,47.43,134.56,146.17h-199.9c1.45,30.98,30.01,53.73,75.99,53.73,25.65,0,51.31-13.07,68.73-29.52l41.63,39.69Zm-184.89-107.45h124.39c-4.84-31.95-37.27-44.05-61.47-44.05s-54.21,10.65-62.92,44.05Z"/><path class="b" d="M1771.07,290.49c7.26,28.56,32.43,37.27,52.27,37.27,15.97,0,32.43-6.29,32.43-18.88,0-8.23-4.84-14.04-18.39-18.88l-43.56-18.39c-59.05-20.81-61.95-60.02-61.95-71.15,0-49.85,44.05-75.99,97.29-75.99,28.56,0,66.31,7.74,89.54,52.27l-55.66,25.65c-6.29-19.84-24.2-23.72-35.33-23.72-13.55,0-27.59,7.75-27.59,20.33,0,10.65,10.65,16.46,23.23,21.3l37.27,14.52c58.56,16.94,63.89,55.18,63.89,71.63,0,50.82-46.95,76.96-101.64,76.96-36.78,0-87.12-11.62-104.06-63.4l52.27-29.53Z"/></g><g><polygon class="b" points="454.74 133.98 498.56 221.91 526.92 278.86 621.7 88.7 663.61 4.58 757.58 4.58 715.66 88.7 617.34 286.03 575.42 370.15 478.45 370.15 449.73 312.49 436.57 286.03 407.79 228.27 454.74 133.98"/><polygon class="b" points="465.93 4.58 424.05 88.7 325.69 286.03 283.78 370.15 186.81 370.15 158.09 312.49 144.92 286.03 116.14 228.27 163.12 134.01 206.91 221.91 235.31 278.86 330.05 88.7 371.97 4.58 465.93 4.58"/><polygon class="b" points="136.38 80.68 132.38 88.71 89.4 175 46.39 88.71 42.42 80.71 4.5 4.59 98.47 4.59 136.38 80.68"/></g></svg>