<svg width="276" height="55" viewBox="0 0 276 55" fill="none" xmlns="http://www.w3.org/2000/svg">
<g clip-path="url(#clip0_2_6)">
<path d="M23.0509 36.3098C18.2397 36.3098 14.325 32.3685 14.325 27.5246C14.325 22.6807 18.2397 18.7394 23.0509 18.7394C27.8622 18.7394 31.7769 22.6807 31.7769 27.5246C31.7769 32.3685 27.8622 36.3098 23.0509 36.3098ZM23.0509 22.8594C20.4962 22.8594 18.4172 24.9525 18.4172 27.5247C18.4172 30.0968 20.4962 32.1899 23.0509 32.1899C25.6057 32.1899 27.6847 30.0968 27.6847 27.5247C27.6847 24.9525 25.6057 22.8594 23.0509 22.8594Z" fill="white"/>
<path d="M25.2477 55H0V0H25.2477C35.4361 0 43.7246 8.34473 43.7246 18.6008C43.7246 21.7289 42.9505 24.7785 41.4758 27.5C42.9505 30.2215 43.7246 33.2726 43.7246 36.3992C43.7246 46.6553 35.4361 55 25.2477 55ZM4.09067 50.88H25.2477C33.1797 50.88 39.6324 44.3835 39.6324 36.3992C39.6324 34.6788 39.3326 32.9877 38.7512 31.3982C37.2291 33.1602 35.4132 34.6649 33.3832 35.8309C30.2548 37.6267 26.6827 38.577 23.051 38.577C19.4192 38.577 15.8472 37.6267 12.7187 35.8309C9.6821 34.0874 7.12273 31.5861 5.31455 28.5982L4.66592 27.5262L5.31455 26.4543C7.12124 23.4663 9.6821 20.965 12.7187 19.2216C15.8472 17.4257 19.4192 16.4754 23.051 16.4754C26.6827 16.4754 30.2548 17.4257 33.3832 19.2216C35.4071 20.3844 37.2199 21.883 38.739 23.6388C39.328 22.0386 39.6339 20.3351 39.6339 18.6009C39.6339 10.6166 33.1813 4.12005 25.2493 4.12005H4.09221V50.8815L4.09067 50.88ZM9.51534 27.5246C10.8937 29.4468 12.682 31.0655 14.7457 32.2499C17.2576 33.6931 20.1291 34.4555 23.0494 34.4555C25.9698 34.4555 28.8428 33.6931 31.3547 32.2499C33.4184 31.0655 35.2052 29.4452 36.5851 27.5246C35.2067 25.6025 33.4184 23.9837 31.3547 22.7993C28.8428 21.3562 25.9713 20.5938 23.0494 20.5938C20.1275 20.5938 17.2561 21.3562 14.7457 22.7993C12.682 23.9837 10.8952 25.604 9.51534 27.5246Z" fill="white"/>
<path d="M59.9201 40.6605V17.9857H64.9716V40.6605L59.9201 40.6605ZM61.4001 31.3962V26.8936H67.6419C68.4572 26.8936 69.1109 26.683 69.6048 26.262C70.0978 25.8408 70.3446 25.2526 70.3446 24.4966C70.3446 23.7191 70.0816 23.1148 69.5565 22.6825C69.0306 22.2509 68.3281 22.0458 67.4491 22.067H61.4001V18.0504L67.803 17.9532C69.3471 17.9532 70.709 18.1961 71.8891 18.6821C73.0684 19.1678 73.9908 19.8967 74.6559 20.8685C75.3206 21.8403 75.6534 23.0713 75.6534 24.5614C75.6534 25.7062 75.2297 26.759 74.3824 27.7196C73.535 28.6808 72.3607 29.4583 70.8596 30.0519C69.3577 30.6461 67.6204 30.9428 65.6473 30.9428L61.4001 31.3962ZM61.5933 40.6605V36.0607H68.2855C69.1649 36.0607 69.862 35.829 70.377 35.3642C70.8916 34.9001 71.1489 34.301 71.1489 33.5665C71.1489 32.789 70.8806 32.1735 70.3446 31.72C69.8081 31.2665 69.0683 31.051 68.1248 31.0723H61.5933V27.1204L65.4862 27.2499C67.6524 27.2499 69.567 27.4716 71.2297 27.914C72.8914 28.3569 74.184 29.0695 75.1064 30.0519C76.0284 31.0349 76.4898 32.368 76.4898 34.0524C76.4898 35.4776 76.1684 36.6817 75.5247 37.6643C74.8811 38.6471 73.9908 39.3921 72.8541 39.8994C71.717 40.407 70.3876 40.6605 68.8646 40.6605H61.5933Z" fill="white"/>
<path d="M79.0955 40.6605V24.4641H84.115V40.6605H79.0955ZM82.7957 32.2708C82.7957 30.5215 83.1443 29.064 83.8415 27.8977C84.5383 26.7317 85.418 25.8572 86.4796 25.2739C87.5412 24.6909 88.6515 24.3994 89.8097 24.3994V29.323C88.8228 29.323 87.8955 29.4315 87.0267 29.647C86.1578 29.8632 85.455 30.1927 84.9193 30.6349C84.3828 31.0778 84.115 31.6447 84.115 32.3356L82.7957 32.2708Z" fill="white"/>
<path d="M94.7001 22.3911C93.949 22.3911 93.2895 22.1051 92.7214 21.5327C92.1528 20.9607 91.8688 20.2967 91.8688 19.5405C91.8688 18.7417 92.1528 18.0666 92.7214 17.5158C93.2895 16.9653 93.949 16.6899 94.7001 16.6899C95.4724 16.6899 96.1371 16.9653 96.6951 17.5158C97.2527 18.0666 97.5315 18.7417 97.5315 19.5405C97.5315 20.2967 97.2527 20.9607 96.6951 21.5327C96.1371 22.1051 95.4724 22.3911 94.7001 22.3911ZM92.1906 40.6605V24.4641H97.2096V40.6605L92.1906 40.6605Z" fill="white"/>
<path d="M100.78 40.6605V17.9857H105.8V40.6605L100.78 40.6605Z" fill="white"/>
<path d="M109.081 40.6605V17.9857H114.101V40.6605L109.081 40.6605Z" fill="white"/>
<path d="M125.104 41.0493C123.431 41.0493 121.951 40.6873 120.664 39.9641C119.377 39.2407 118.369 38.2422 117.64 36.9677C116.91 35.6938 116.546 34.2256 116.546 32.5623C116.546 30.878 116.916 29.399 117.656 28.1244C118.396 26.8505 119.409 25.8571 120.696 25.1444C121.983 24.4318 123.474 24.0753 125.168 24.0753C126.691 24.0753 128.064 24.4428 129.287 25.1768C130.509 25.9112 131.48 27.0019 132.199 28.4484C132.917 29.8956 133.277 31.6988 133.277 33.8581H128.29C128.29 32.5623 128.177 31.4827 127.951 30.6187C127.726 29.7552 127.372 29.1019 126.89 28.659C126.407 28.2166 125.769 27.9949 124.975 27.9949C124.225 27.9949 123.602 28.1731 123.109 28.5293C122.615 28.8858 122.251 29.4151 122.015 30.1166C121.779 30.8187 121.661 31.6987 121.661 32.7567C121.661 33.7285 121.827 34.5113 122.16 35.1051C122.493 35.6992 122.927 36.1366 123.463 36.417C123.999 36.6979 124.589 36.838 125.233 36.838C126.005 36.838 126.654 36.6654 127.179 36.3198C127.705 35.9745 128.075 35.5316 128.29 34.9917L132.826 36.5465C132.397 37.5618 131.791 38.4041 131.008 39.0731C130.225 39.7428 129.33 40.2394 128.322 40.5631C127.313 40.8871 126.241 41.0493 125.104 41.0493ZM119.763 33.8581L119.795 30.392H130.896V33.8581H119.763Z" fill="white"/>
<path d="M135.399 40.6605V24.4641H140.129L140.419 27.4442V40.6605L135.399 40.6605ZM145.76 32.368C145.76 31.5045 145.663 30.8188 145.47 30.3111C145.277 29.8039 145.004 29.4315 144.65 29.1935C144.295 28.9561 143.861 28.8266 143.347 28.8047C142.381 28.7835 141.652 29.0478 141.159 29.5984C140.665 30.1491 140.419 30.9863 140.419 32.1088H138.906C138.906 30.4032 139.164 28.9506 139.679 27.752C140.194 26.5535 140.896 25.6414 141.786 25.0148C142.676 24.3887 143.711 24.0753 144.891 24.0753C146.842 24.0753 148.312 24.6696 149.299 25.8571C150.285 27.045 150.779 28.8913 150.779 31.3962L145.76 32.368ZM145.76 40.6605V32.368L150.779 31.3962L150.779 40.6605H145.76Z" fill="white"/>
<path d="M153.835 40.6605V17.9857H158.855V40.6605L153.835 40.6605ZM158.597 37.0649L155.637 33.5666L163.713 24.4641H169.601L158.597 37.0649ZM164.196 40.6605L159.209 33.5018L162.49 30.0357L170.019 40.6605H164.196Z" fill="white"/>
<path d="M174.716 22.3911C173.965 22.3911 173.306 22.1051 172.737 21.5327C172.169 20.9607 171.885 20.2967 171.885 19.5405C171.885 18.7417 172.169 18.0666 172.737 17.5158C173.306 16.9653 173.965 16.6899 174.716 16.6899C175.488 16.6899 176.153 16.9653 176.711 17.5158C177.269 18.0666 177.548 18.7417 177.548 19.5405C177.548 20.2967 177.269 20.9607 176.711 21.5327C176.153 22.1051 175.488 22.3911 174.716 22.3911ZM172.207 40.6605V24.4641H177.226V40.6605L172.207 40.6605Z" fill="white"/>
<path d="M180.732 47.6249C179.338 47.6249 178.105 47.2686 177.032 46.5561L179.091 42.3773C179.349 42.5281 179.606 42.6578 179.864 42.766C180.121 42.8739 180.357 42.928 180.571 42.928C181.387 42.928 181.794 42.3662 181.794 41.2435V24.4641H186.813V41.5998C186.813 43.4998 186.288 44.9794 185.237 46.0376C184.185 47.0954 182.684 47.6249 180.732 47.6249ZM184.304 22.5205C183.532 22.5205 182.856 22.229 182.277 21.646C181.697 21.063 181.408 20.3828 181.408 19.6052C181.408 18.8065 181.697 18.1152 182.277 17.5322C182.856 16.9491 183.532 16.6574 184.304 16.6574C185.097 16.6574 185.784 16.9492 186.363 17.5322C186.942 18.1152 187.231 18.8065 187.231 19.6052C187.231 20.3828 186.942 21.063 186.363 21.646C185.784 22.2291 185.097 22.5205 184.304 22.5205Z" fill="white"/>
<path d="M190.481 40.6605V17.9857H195.5V40.6605L190.481 40.6605ZM195.243 37.0649L192.283 33.5666L200.359 24.4641H206.246L195.243 37.0649ZM200.841 40.6605L195.854 33.5018L199.136 30.0357L206.664 40.6605H200.841Z" fill="white"/>
<path d="M215.223 41.0493C213.55 41.0493 212.07 40.6873 210.783 39.9641C209.496 39.2407 208.488 38.2422 207.759 36.9677C207.029 35.6938 206.665 34.2256 206.665 32.5623C206.665 30.878 207.035 29.399 207.775 28.1244C208.515 26.8505 209.528 25.8571 210.816 25.1444C212.102 24.4318 213.593 24.0753 215.288 24.0753C216.81 24.0753 218.183 24.4428 219.406 25.1768C220.628 25.9112 221.599 27.0019 222.318 28.4484C223.036 29.8956 223.396 31.6988 223.396 33.8581H218.409C218.409 32.5623 218.296 31.4827 218.071 30.6187C217.845 29.7552 217.492 29.1019 217.009 28.659C216.527 28.2166 215.888 27.9949 215.094 27.9949C214.344 27.9949 213.722 28.1731 213.229 28.5293C212.735 28.8858 212.37 29.4151 212.134 30.1166C211.898 30.8187 211.781 31.6987 211.781 32.7567C211.781 33.7285 211.947 34.5113 212.279 35.1051C212.612 35.6992 213.046 36.1366 213.582 36.417C214.118 36.6979 214.708 36.838 215.352 36.838C216.124 36.838 216.773 36.6654 217.298 36.3198C217.824 35.9745 218.194 35.5316 218.409 34.9917L222.945 36.5465C222.516 37.5618 221.91 38.4041 221.127 39.0731C220.344 39.7428 219.449 40.2394 218.441 40.5631C217.432 40.8871 216.36 41.0493 215.223 41.0493ZM209.882 33.8581L209.915 30.392H221.015V33.8581H209.882Z" fill="white"/>
<path d="M225.519 40.6605V24.4641H230.248L230.538 27.4442V40.6605L225.519 40.6605ZM235.879 32.368C235.879 31.5045 235.783 30.8188 235.589 30.3111C235.397 29.8039 235.123 29.4315 234.769 29.1935C234.415 28.9561 233.981 28.8266 233.466 28.8047C232.501 28.7835 231.772 29.0478 231.278 29.5984C230.785 30.1491 230.538 30.9863 230.538 32.1088H229.026C229.026 30.4032 229.284 28.9506 229.798 27.752C230.313 26.5535 231.015 25.6414 231.905 25.0148C232.795 24.3887 233.831 24.0753 235.01 24.0753C236.962 24.0753 238.431 24.6696 239.418 25.8571C240.405 27.045 240.898 28.8913 240.898 31.3962L235.879 32.368ZM235.879 40.6605V32.368L240.898 31.3962L240.898 40.6605H235.879Z" fill="white"/>
<path d="M246.625 41.1465C245.81 41.1465 245.113 40.8547 244.534 40.2717C243.954 39.6887 243.665 38.9872 243.665 38.1662C243.665 37.3677 243.954 36.6762 244.534 36.0931C245.113 35.5101 245.81 35.2186 246.625 35.2186C247.418 35.2186 248.105 35.5101 248.684 36.0931C249.263 36.6761 249.553 37.3677 249.553 38.1662C249.553 38.9872 249.263 39.6887 248.684 40.2717C248.105 40.8547 247.418 41.1465 246.625 41.1465Z" fill="white"/>
<path d="M252.545 40.6605V24.4641H257.275L257.564 27.4442V40.6605L252.545 40.6605ZM262.905 32.368C262.905 31.5045 262.809 30.8188 262.616 30.3111C262.423 29.8039 262.149 29.4315 261.795 29.1935C261.441 28.9561 261.007 28.8266 260.492 28.8047C259.527 28.7835 258.798 29.0478 258.304 29.5984C257.811 30.1491 257.564 30.9863 257.564 32.1088H256.052C256.052 30.4032 256.31 28.9506 256.824 27.752C257.339 26.5535 258.041 25.6414 258.932 25.0148C259.822 24.3887 260.857 24.0753 262.037 24.0753C263.988 24.0753 265.457 24.6696 266.444 25.8571C267.431 27.045 267.924 28.8913 267.924 31.3962L262.905 32.368ZM262.905 40.6605V32.368L267.924 31.3962L267.924 40.6605H262.905Z" fill="white"/>
<path d="M270.981 40.6605V17.9857H276V40.6605L270.981 40.6605Z" fill="white"/>
</g>
<defs>
<clipPath id="clip0_2_6">
<rect width="276" height="55" fill="white"/>
</clipPath>
</defs>
</svg>
